<?xml version="1.0" encoding="utf-8"?>
<!-- Generator: Adobe Illustrator 26.5.0, SVG Export Plug-In . SVG Version: 6.00 Build 0)  -->
<svg version="1.1" id="Lag_1" xmlns="http://www.w3.org/2000/svg" xmlns:xlink="http://www.w3.org/1999/xlink" x="0px" y="0px"
	 viewBox="0 0 189 196" style="enable-background:new 0 0 189 196;" xml:space="preserve">
<style type="text/css">
	.st0{fill:none;stroke:#221F1F;stroke-width:0.25;stroke-miterlimit:10;}
	.st1{fill:none;stroke:#221F1F;stroke-miterlimit:10;}
	.st2{opacity:0.7;fill:none;stroke:#000000;stroke-width:0.5;stroke-miterlimit:10;}
	.st3{fill:#6CC3C7;stroke:#000000;stroke-miterlimit:10;}
	.st4{fill:#FDEBDC;stroke:#000000;stroke-miterlimit:10;}
	.st5{opacity:0.95;fill:#206B59;}
	.st6{fill:#E4BB6D;}
	.st7{opacity:0.79;fill:#00B7E6;stroke:#221F1F;stroke-miterlimit:10;}
	.st8{fill:#C6965C;}
	.st9{fill:none;stroke:#221F1F;stroke-width:2;stroke-miterlimit:10;}
	.st10{fill:#FCC638;stroke:#221F1F;stroke-miterlimit:10;}
	.st11{fill:none;}
	.st12{fill:none;stroke:#000000;stroke-width:0.25;stroke-miterlimit:10;}
	.st13{fill:none;stroke:#000000;stroke-width:0.75;stroke-miterlimit:10;}
	.st14{fill:#010000;}
	.st15{fill:none;stroke:#221F1F;stroke-width:0.5;stroke-miterlimit:10;}
	.st16{fill:#00B7E6;stroke:#221F1F;stroke-miterlimit:10;}
	.st17{opacity:0.88;fill:#9D4516;}
	.st18{opacity:0.89;fill:#9D4516;}
	.st19{opacity:0.62;stroke:#221F1F;stroke-width:0.5;stroke-miterlimit:10;}
	.st20{opacity:0.63;stroke:#221F1F;stroke-width:0.5;stroke-miterlimit:10;}
	.st21{opacity:0.5;fill:#293277;}
	.st22{opacity:0.95;fill:#273372;}
	.st23{opacity:0.42;}
	.st24{opacity:0.89;fill:#FFFFFF;}
	.st25{fill:#FFFFFF;}
	.st26{opacity:0.49;}
	.st27{opacity:0.7;fill:none;stroke:#221F1F;stroke-width:0.5;stroke-miterlimit:10;}
	.st28{fill:#1D1D1B;}
</style>
<path class="st0" d="M173.23,56.54"/>
<path class="st1" d="M167.62,93.94"/>
<path class="st1" d="M173.23,108.49"/>
<g>
	<path class="st2" d="M67.36,143.31l2.45,1.82l2.03,0.7c0.06,0.01,1.11,0.01,1.17,0l1.77-0.63l0,0c0.27,0.39,0.33,0.89,0.15,1.33
		l-0.29,0.71c-0.21,0.52-0.55,0.97-0.99,1.32l-0.2,0.64c-0.34,0.7-1.43,1.27-2.26,1.44l-1.24,0.5l1.04-4.12l0.19-1.53"/>
	<circle class="st3" cx="94.5" cy="98" r="84.91"/>
	<ellipse class="st4" cx="94.5" cy="97.94" rx="61.29" ry="62.91"/>
	<path class="st5" d="M74.93,118.06l1.44-0.6l23.75,2.67l2.33-0.57l1.93-0.76l2.15-1.72l1.49,7.07l0.81,3.79l2.23,5.25l1.28,2.95
		l-0.37,2.12l0.5,2.35l0.44,1.43l1.17,6.27l0.55,8.57l-0.9,0.32c-4.74,1.7-11.66,3.08-16.7,3.08H90.4
		c-3.32-0.22-4.44-0.49-6.57-0.85l-1.1-0.19c-2.98-0.51-6.27-1.41-9.02-2.63c-0.61-0.27-0.84-0.51-1.48-0.72l-0.09-0.03l1.29-8.52
		l1.11-8.67c0,0,0.13-5.15,0.13-5.35c0-0.2,0.4-7.18,0.4-7.18v-6.97L74.93,118.06z"/>
	<path class="st6" d="M78.26,117.35l6.23,0.38l7.5,1l5.46,0.47l1.99,0.17c1.42,0.12,2.83-0.26,4-1.07l1.38-0.96l3.7-3.62l2.48-2.22
		c0.38-0.34,0.54-0.85,0.43-1.34l-0.09-0.41c-0.05-0.22-0.19-0.42-0.38-0.54l-1.24-0.79c-0.99-0.63-2.12-1.01-3.28-1.12l-1.89-0.17
		l-4.21-0.2l-3.87,4.45l-3.03,0.03h-4.05l-5.36,1.57l-6.48,3.95L78.26,117.35z"/>
	<path class="st6" d="M64.89,107l0.16-0.28c1.66,0.28,2.9,0.54,4.36,1.36l1.48,1.24l-1.63,2.01l-2.56,1.77v0.26l2.81-1.74l8.33-1.45
		l6.15-0.9l3.93-0.58l5.03,0.33c0,0,1.44,1.59,1.17,1.43s-4.63,0-4.63,0l-5.96,1.63l-6.58,4.14l-3.73,1.57l-6.87,1.45
		c-1.28,0.35-2.93,0.36-4.26,0.36h-0.03l-0.71-1.66c-0.09-0.21-0.17-0.42-0.23-0.64l-0.06-0.2c-0.31-1.01-0.32-2.09-0.03-3.1
		l0.21-0.72c0.04-0.12,0.08-0.24,0.14-0.36l1.28-2.52L64.89,107z"/>
	<polygon class="st6" points="85.95,83.71 92.75,83.71 98.28,83.12 97.26,85.97 97.42,87.71 98.73,89.11 100.01,89.6 97.66,91.54 
		94.86,92.72 92.25,93.28 88.98,93.6 86.55,93.2 84.86,91.95 84.2,91.09 86.35,89.11 87.11,88.36 87.58,86.96 87.58,85.58 	"/>
	<polygon class="st7" points="78,52.95 78.38,46.62 80.45,41.71 84.28,38.43 87.72,37.03 92.03,36.32 94.5,36.32 99.38,36.91 
		102.26,37.88 105.78,39.72 108.24,41.58 109.64,43.84 109.96,50.32 109.83,51.98 109.79,53.34 109.42,53.95 106.35,55.73 
		106.34,54.28 92.83,51.98 85.39,52.32 79.2,53.73 77.87,54.13 	"/>
	<path class="st1" d="M78.38,82.39l8.52,0.51c3.06,0.18,6.14,0.15,9.19-0.1l2.07-0.17c1.9-0.16,3.8-0.41,5.68-0.76l9.58-1.78"/>
	<polygon class="st8" points="75.12,56.45 68.7,59.5 64.1,62.96 61.23,68.21 60.72,72.26 62.18,76.45 65.72,80.01 71.22,82.53 
		76.24,82.91 84.61,83.71 92.89,83.71 100.29,82.91 110.94,81.29 118.03,79.56 124.22,75.26 127.16,72.26 129.29,66.25 
		127.56,61.27 122.8,57.73 110.11,54.19 89.12,54.84 	"/>
	<path class="st9" d="M114.08,156.92c-0.22-3.82,0.06-5.63-0.13-9.46c-0.09-1.8-0.35-3.6-0.77-5.35h0c-0.68-2.55-1.1-0.29-0.79-5.07
		l0.13-3.67c0.22-1.4,0.1-7.91,0.1-9.83"/>
	<path class="st10" d="M77.44,55.08l-2.48,2.76c-1.06,0.87-2.77,3.25-4.23,6.02v0c-0.75,1.62-1.13,3.39-1.13,5.17v0l2.32-2.23
		c1.76-1.69,3.6-3.28,5.53-4.77v0"/>
	<rect x="84.67" y="171.55" class="st11" width="14.72" height="0"/>
	<path class="st12" d="M88.51,51.26"/>
	<path class="st12" d="M90.69,38.84"/>
	<path class="st13" d="M91.5,84.72"/>
	<path class="st11" d="M93.55,85.07c-4.01,1.11-7.91,2.58-11.65,4.4"/>
	<g>
		<g>
			<path class="st14" d="M67.8,167.8c1.09,0.48,2.18,0.93,3.28,1.34c-0.08,0.19-0.16,0.38-0.24,0.56c-1.39-0.52-2.76-1.1-4.12-1.72
				c0.77-1.46,1.54-2.92,2.31-4.38c1.2,0.55,2.42,1.06,3.65,1.53c-0.08,0.19-0.16,0.37-0.24,0.56c-0.99-0.38-1.98-0.78-2.95-1.21
				C68.91,165.59,68.35,166.7,67.8,167.8z M68.72,165.81c0.92,0.41,1.84,0.79,2.77,1.15c-0.08,0.18-0.16,0.37-0.24,0.55
				c-0.94-0.36-1.88-0.75-2.81-1.16C68.54,166.17,68.63,165.99,68.72,165.81z"/>
			<path class="st14" d="M76.08,171.49c-0.45-0.13-0.86-0.31-1.22-0.54c-0.37-0.23-0.64-0.47-0.8-0.72
				c0.16-0.14,0.32-0.28,0.49-0.42c0.16,0.22,0.4,0.44,0.7,0.64c0.31,0.2,0.64,0.36,1.01,0.46c0.34,0.09,0.62,0.14,0.85,0.13
				c0.23-0.01,0.41-0.05,0.54-0.14c0.13-0.08,0.21-0.2,0.25-0.34c0.05-0.16,0.02-0.31-0.08-0.44c-0.1-0.13-0.24-0.25-0.42-0.37
				c-0.18-0.11-0.39-0.23-0.62-0.34c-0.23-0.11-0.45-0.23-0.67-0.37c-0.22-0.13-0.42-0.27-0.58-0.43c-0.17-0.15-0.28-0.33-0.35-0.52
				c-0.07-0.19-0.05-0.42,0.04-0.66c0.08-0.24,0.24-0.43,0.45-0.59c0.22-0.16,0.5-0.25,0.84-0.28c0.34-0.03,0.75,0.02,1.21,0.15
				c0.31,0.08,0.61,0.21,0.89,0.36c0.29,0.15,0.52,0.32,0.71,0.51c-0.13,0.16-0.27,0.32-0.41,0.48c-0.2-0.19-0.41-0.35-0.65-0.48
				c-0.24-0.13-0.48-0.23-0.72-0.29c-0.3-0.08-0.56-0.12-0.78-0.11c-0.22,0.01-0.39,0.06-0.52,0.14c-0.13,0.08-0.21,0.19-0.26,0.33
				c-0.06,0.16-0.04,0.31,0.05,0.45c0.09,0.14,0.22,0.26,0.4,0.38c0.18,0.12,0.38,0.23,0.6,0.34c0.22,0.11,0.45,0.23,0.67,0.35
				c0.23,0.12,0.42,0.26,0.6,0.4c0.17,0.14,0.3,0.31,0.38,0.5c0.08,0.19,0.09,0.41,0.02,0.66c-0.06,0.24-0.2,0.44-0.42,0.61
				c-0.22,0.17-0.51,0.27-0.88,0.3C77.04,171.69,76.59,171.64,76.08,171.49z"/>
			<path class="st14" d="M83.05,172.98c0.25-1.41,0.5-2.82,0.76-4.22c-0.63-0.1-1.26-0.22-1.88-0.34c0.04-0.2,0.09-0.4,0.13-0.6
				c1.49,0.29,2.99,0.53,4.5,0.7c-0.03,0.2-0.05,0.4-0.08,0.6c-0.63-0.07-1.26-0.16-1.89-0.25c-0.23,1.41-0.47,2.82-0.7,4.23
				C83.61,173.07,83.33,173.02,83.05,172.98z"/>
			<path class="st14" d="M86.93,173.53c-0.16-0.02-0.29-0.08-0.39-0.18c-0.1-0.1-0.15-0.22-0.13-0.36c0.02-0.14,0.09-0.25,0.21-0.32
				c0.12-0.08,0.26-0.11,0.42-0.09c0.15,0.02,0.28,0.07,0.38,0.17c0.1,0.1,0.14,0.22,0.13,0.36c-0.01,0.14-0.08,0.25-0.2,0.33
				C87.22,173.52,87.09,173.55,86.93,173.53z"/>
			<path class="st14" d="M92.82,173.8c0-0.16,0-0.32,0-0.48c0.81-0.64,1.6-1.29,2.35-1.95c0.2-0.17,0.35-0.33,0.44-0.46
				c0.1-0.13,0.16-0.25,0.19-0.36c0.03-0.11,0.04-0.22,0.04-0.32c-0.01-0.25-0.12-0.44-0.33-0.58c-0.21-0.14-0.5-0.2-0.89-0.19
				c-0.3,0.01-0.56,0.05-0.8,0.14c-0.24,0.09-0.44,0.22-0.62,0.41c-0.18-0.14-0.36-0.28-0.54-0.41c0.21-0.24,0.5-0.42,0.85-0.55
				c0.35-0.13,0.74-0.2,1.16-0.21c0.38-0.01,0.71,0.03,1,0.13c0.29,0.1,0.52,0.24,0.68,0.44c0.17,0.2,0.26,0.43,0.28,0.71
				c0.01,0.16,0,0.32-0.04,0.47c-0.04,0.16-0.12,0.32-0.25,0.5c-0.13,0.18-0.31,0.38-0.56,0.61c-0.67,0.6-1.37,1.19-2.08,1.77
				c-0.07-0.09-0.14-0.18-0.21-0.27c1.19-0.01,2.39-0.05,3.58-0.12c0.01,0.2,0.03,0.4,0.04,0.61
				C95.69,173.77,94.25,173.81,92.82,173.8z"/>
			<path class="st14" d="M102.57,173.16c-0.47,0.07-0.9,0.03-1.29-0.12c-0.39-0.15-0.72-0.4-0.97-0.74
				c-0.26-0.35-0.41-0.78-0.48-1.31c-0.06-0.53-0.02-0.99,0.14-1.38c0.15-0.39,0.38-0.71,0.69-0.94c0.31-0.24,0.67-0.39,1.1-0.45
				c0.42-0.06,0.81-0.03,1.19,0.11c0.37,0.14,0.7,0.37,0.97,0.7c0.27,0.33,0.46,0.75,0.57,1.27c0.11,0.52,0.1,0.98-0.03,1.39
				c-0.13,0.4-0.36,0.73-0.69,0.99C103.43,172.93,103.03,173.1,102.57,173.16z M102.47,172.55c0.31-0.05,0.57-0.16,0.78-0.33
				c0.21-0.18,0.35-0.41,0.43-0.71c0.08-0.3,0.08-0.65,0-1.06c-0.08-0.41-0.21-0.74-0.39-0.99c-0.18-0.25-0.39-0.43-0.63-0.53
				c-0.24-0.1-0.51-0.13-0.8-0.09c-0.29,0.04-0.53,0.15-0.73,0.32c-0.2,0.17-0.34,0.4-0.43,0.69c-0.09,0.29-0.1,0.64-0.05,1.06
				c0.06,0.41,0.17,0.75,0.33,1.01c0.17,0.26,0.38,0.44,0.64,0.55C101.88,172.57,102.16,172.6,102.47,172.55z"/>
			<path class="st14" d="M107.97,172.06c-0.04-0.15-0.08-0.31-0.12-0.46c0.63-0.81,1.23-1.63,1.8-2.46c0.15-0.22,0.26-0.4,0.31-0.55
				c0.06-0.15,0.09-0.28,0.09-0.4c0-0.11-0.02-0.22-0.05-0.32c-0.08-0.24-0.24-0.4-0.48-0.48c-0.24-0.08-0.55-0.07-0.92,0.03
				c-0.29,0.08-0.54,0.19-0.75,0.33c-0.21,0.14-0.37,0.32-0.5,0.54c-0.21-0.09-0.43-0.18-0.64-0.27c0.15-0.28,0.38-0.52,0.69-0.73
				c0.31-0.21,0.67-0.37,1.08-0.48c0.37-0.1,0.71-0.14,1.02-0.12c0.31,0.02,0.57,0.11,0.79,0.26c0.22,0.15,0.37,0.36,0.47,0.62
				c0.05,0.15,0.08,0.31,0.08,0.47c0,0.16-0.03,0.34-0.11,0.55c-0.08,0.21-0.21,0.45-0.39,0.72c-0.5,0.74-1.03,1.48-1.58,2.21
				c-0.09-0.07-0.18-0.14-0.27-0.21c1.17-0.29,2.34-0.62,3.5-0.99c0.07,0.19,0.13,0.38,0.2,0.58
				C110.78,171.33,109.38,171.72,107.97,172.06z"/>
			<path class="st14" d="M117.45,169.04c-0.45,0.18-0.89,0.25-1.32,0.21c-0.43-0.05-0.82-0.2-1.17-0.47
				c-0.35-0.27-0.62-0.66-0.82-1.15c-0.21-0.49-0.28-0.95-0.24-1.37c0.05-0.42,0.19-0.78,0.43-1.08c0.24-0.31,0.56-0.54,0.97-0.71
				c0.4-0.16,0.8-0.23,1.21-0.19c0.41,0.04,0.79,0.18,1.15,0.43c0.36,0.25,0.67,0.61,0.92,1.09c0.25,0.48,0.37,0.92,0.35,1.35
				c-0.02,0.42-0.16,0.8-0.42,1.13C118.24,168.61,117.89,168.86,117.45,169.04z M117.18,168.48c0.3-0.12,0.52-0.29,0.68-0.52
				c0.16-0.22,0.24-0.49,0.23-0.79c0-0.31-0.1-0.65-0.29-1.02c-0.19-0.37-0.41-0.66-0.65-0.86s-0.5-0.32-0.77-0.36
				c-0.27-0.04-0.54,0-0.82,0.11c-0.27,0.11-0.49,0.27-0.64,0.49c-0.15,0.21-0.23,0.47-0.24,0.77c-0.01,0.3,0.07,0.65,0.24,1.03
				c0.17,0.38,0.37,0.68,0.6,0.89c0.24,0.21,0.5,0.33,0.78,0.37C116.59,168.64,116.88,168.6,117.18,168.48z"/>
		</g>
	</g>
	<path class="st9" d="M123.87,59.2c-1.52-0.76-2.7-1.54-4.27-2.33c-3.14-1.18-7.85-0.39-9.81-3.53c0-4.32,1.57-9.03-1.96-12.17
		c-5.89-4.71-13.73-6.28-20.8-3.92c-0.78,0.39-1.96,0.78-2.75,1.18c-5.49,2.75-6.67,9.03-6.28,14.52c0,2.35-1.57,4.71-3.53,5.1
		c-5.89,2.35-12.17,4.71-13.73,10.6c-1.18,3.14-0.39,6.28,1.96,8.63c5.89,5.89,14.13,4.71,21.98,6.28c0.78,0.39,1.96,0.78,2.35,1.57
		c0,0.39,0.39,0.78,0.39,1.18c-0.39,2.75-2.75,4.32-5.1,5.49c-3.92,1.57-7.85,1.18-11.38,3.14c-3.92,2.35-5.1,6.28-7.85,9.81
		c-0.39,0.39-0.78,0.39-1.04,0.95l2.78,0.66c-1.02,2.22-2.69,4.1-3.53,6.41c-0.99,2.71-0.94,7.97,2.04,7.41
		c18.2-3.41,12.24-4.17,13.72-3.19c1.74-0.65-1.82-0.04-2.82,0.76c0.19,1.93-0.12,5.41,0.02,7.98c0.05,1,0.09,1.99,0.05,2.99
		l-0.27,7.76c0,1.7-0.13,3.39-0.39,5.07l-0.49,3.22l-1,7.82l0,3.21"/>
	<path class="st9" d="M123.28,58.86c4.76,1.99,7.51,7.09,5.15,11.8c-5.1,9.03-16.48,10.2-25.9,11.38c-2.75,0.39-5.89,2.35-4.71,5.1
		c0.39,1.57,2.35,1.96,3.92,2.35c0.39,0,1.18,0,1.57,0c1.18,0.39,2.35,0.78,3.53,1.18c3.92,1.96,8.63,3.14,10.99,6.67
		c-0.39,4.71-1.18,9.42-2.29,14.29c-1.27-0.67-2.54-1.34-3.81-2c0.38,4.63,0.68,9.27,0.88,13.91"/>
	<polyline class="st9" points="76.18,117.13 83.86,112.52 89.78,110.74 95.31,110.74 93.21,108.96 88.13,108.51 77.85,109.94 
		69.37,111.61 71.35,108.96 68.34,107.18 65.05,106.47 	"/>
	<path class="st9" d="M131.98,138.68"/>
	<path class="st9" d="M76.18,117.13l12.95,1.49l9.82,0.95c2.27,0.22,4.52-0.57,6.16-2.15l3.73-3.61l3.98-4.07l-4.41-2.71l-9.29-0.84
		l5.81-5.61l2.3-4.91"/>
	<line class="st9" x1="95.9" y1="111.16" x2="100.32" y2="106.17"/>
	<polygon class="st1" points="102.44,89.48 99.88,94.6 97.1,100.81 96.21,106.42 97.72,106.62 99.88,100.09 103.27,92.39 
		105.03,90.05 	"/>
	<path class="st1" d="M142.33,71.96"/>
	<polyline class="st1" points="87.72,53.42 87.72,43.11 91.5,37.4 92.83,35.83 	"/>
	<path class="st15" d="M97.57,36.51l5.46,4.43c1.45,1.18,2.4,2.88,2.64,4.75l0.69,5.41v4.63l3.07-1.78l6.57,2.32l2.14-0.33"/>
	<path class="st11" d="M76.11,56.67"/>
	<path class="st1" d="M63.34,103.9l2.65,0.44c1.27,0.28,2.93,0.55,4.72,2.02l2.52,1.28"/>
	<path class="st1" d="M101.39,104.01l2.34,0.24c2.65,0.2,5.24,0.9,7.63,2.05l0,0c0.46,0.22,0.91,0.47,1.33,0.76l3.57,2.38"/>
	<polyline class="st1" points="79.2,102.42 90.28,102.95 96.95,101.77 	"/>
	<path class="st10" d="M113.11,55.68l-5.89,2.87c-2.31,1.66-4.06,4.16-4.96,7.07l-0.88,2.83l3.17-3.11
		c1.62-2.16,4.26-4.14,8.25-6.02l5.08-2.73"/>
	<path class="st10" d="M86.92,60.64l-1.76,2.85c-0.62,1.09-1.63,3.48-1.19,4.69l0,0l1.17-1.26c0.26-0.28,0.43-0.65,0.7-0.92
		c1.36-1.34,2.53-2.47,3.69-3.42l1.97-1.76"/>
	<line class="st1" x1="104.93" y1="100.58" x2="99.59" y2="100.98"/>
	<line class="st1" x1="73.53" y1="106.62" x2="73.53" y2="110.82"/>
	<path class="st15" d="M84.14,90.32l0.15,0.4c0.33,0.88,0.96,1.65,1.81,2.21l0,0c0.65,0.43,1.45,0.66,2.27,0.66h1.38
		c0.83,0,1.67-0.1,2.47-0.29l2.26-0.54c2.22-0.53,4.2-1.63,5.66-3.15l0.47-0.49"/>
	<path class="st1" d="M83.02,91.11l0.32,0.56c0.51,0.91,1.33,1.7,2.37,2.28l0,0c0.17,0.1,0.36,0.17,0.57,0.22l1.01,0.23
		c2.07,0.48,4.27,0.52,6.37,0.13l0.32-0.06c0.98-0.18,1.92-0.45,2.81-0.81l0,0c-0.18,0.09,2.99-1.56,4.23-2.75l1.01-1.02"/>
	<line class="st1" x1="68.92" y1="111.81" x2="66.86" y2="113.1"/>
	<path class="st16" d="M70.67,64.41l5.16-2.24c2.39-1.04,4.97-1.57,7.58-1.57h3.41c0.93,0,1.86,0.06,2.79,0.17L92,61.05
		c2.35,0.28,4.55,1.29,6.29,2.89l0.5,0.46l7.55-10.13L102,53.01l-6.08-0.45l-9.19-0.58l-7.07,1.61l-2.49,0.76L70.67,64.41z"/>
	<path d="M82.4,127.26l1.07,0.72c2.13,1.44,4.49,2.53,6.97,3.22l1.66,0.46"/>
	<path d="M82.4,124.51l1.14,0.85c1.35,1.13,2.13,2.46,4.85,3.46l1.96,0.37l1.74,0.84"/>
	<path d="M84.6,130.61L84.6,130.61c1.53,0.93,3.18,1.64,4.91,2.1l0.38,0.1"/>
	<polygon class="st17" points="77.52,93.15 75.34,107.44 78.16,107.35 81.42,91.79 	"/>
	<polygon class="st18" points="102.47,89.58 100.44,93.16 97.07,100.72 96.21,106.23 97.66,106.42 101.18,96.91 102.98,92.44 
		104.68,90.14 	"/>
	<polygon class="st19" points="112.35,109.1 115.82,111.81 112.15,111.81 	"/>
	<polyline class="st20" points="61.71,105.65 63.92,107.4 64.45,106.52 	"/>
	<polyline class="st1" points="70.38,109.68 70.99,109.61 72.7,109.43 70.96,108.86 72.7,109.43 74.3,104.32 74.3,100.63 
		76.56,101.29 77.79,94.2 77.79,93.15 81.25,91.79 78.36,107.35 75.85,107.44 76.56,101.29 	"/>
	<ellipse class="st21" cx="77.87" cy="101.25" rx="0.51" ry="0.42"/>
	<ellipse class="st21" cx="77.48" cy="104.63" rx="0.51" ry="0.42"/>
	<ellipse class="st21" cx="97.91" cy="103.02" rx="0.51" ry="0.42"/>
	<ellipse class="st21" cx="98.87" cy="99.8" rx="0.51" ry="0.42"/>
	<path class="st22" d="M112.15,136.21l-1.41-3.25c-1.64-3.79-2.83-7.76-3.54-11.82l-0.86-4.91"/>
	<polygon class="st23" points="70.67,64.41 77.48,61.55 82.26,60.64 86.82,60.6 93.55,61.35 95.49,62.06 98.29,63.94 98.8,64.41 
		88.51,63.46 81.9,63.14 75.34,63.74 	"/>
	<polygon class="st24" points="64,104.01 67.27,104.63 68.92,105.22 71.4,106.72 73.22,107.64 74.3,104.32 74.3,100.63 
		76.56,101.29 77.79,93.15 73.53,93.88 70.94,94.94 68.28,97.15 65.42,101.25 	"/>
	<path class="st24" d="M81.38,92.47l1.8-0.55l0.94,1.1c0.66,0.77,1.55,1.26,2.52,1.58l0.1,0.02c0.28,0.05,0.55,0.13,0.82,0.2
		c0.62,0.16,1.25,0.25,1.89,0.25l0.49-0.02l1.64-0.07c1-0.04,2-0.18,2.97-0.4l0.43-0.1c0.85-0.2,1.67-0.5,2.45-0.89l1.68-0.85
		l2.73-2.2l-3.68,7.57l-1.04,2.51l-0.26,1.17l-6.51,1.15l-10.77-0.56L81.38,92.47z"/>
	<path class="st24" d="M99.93,100.98l4.74-0.39l2.35-4.91l0.51,0.37l-2.16,4.9c0,0-4.05,3.14-3.31,2.99
		c0.74-0.15,5.81,0.75,5.81,0.75l3.71,1.58l4.19,2.61l1.08-6.89l0.47-4.77l-2.03-2.12l-6.89-3.29l-3.55-1.44l-1.52,2.12
		L99.93,100.98z"/>
	<polygon class="st24" points="63.64,104.17 67.89,104.96 69.19,105.65 72.96,107.81 72.53,109.26 69.19,107.33 67.59,106.52 
		64.45,105.77 62.81,105.6 	"/>
	<polygon class="st24" points="106.41,116.6 111.59,111.48 112.28,122.9 112.15,135.38 109.25,129.11 107.83,123.35 	"/>
	<path class="st25" d="M100.11,105.77l1.54-1.6l5.48,0.8l4.31,1.55l4.11,2.74c0,0-0.2,2.23-0.27,1.9s-5.21-3.14-5.21-3.14
		l-2.24-1.04l-5.57-0.81L100.11,105.77z"/>
	<path class="st24" d="M83.45,91.64l0.24,0.31c0.46,0.6,1.02,1.12,1.65,1.54c0.34,0.23,0.64,0.43,0.68,0.45
		c1.17,0.44,2.71,0.6,2.71,0.6l2.62,0.08c0.45,0.04,1.16-0.04,1.61-0.14l2.38-0.42l1.94-0.8l2.59-1.62l2.02-1.75l-1.54-0.41
		l-1.42,1.35l-1.14,0.73l-1.59,0.8c0,0-1.15,0.38-1.21,0.38c-0.05,0-1.79,0.38-2.61,0.56c-0.29,0.06-0.57,0.27-0.86,0.29l-2.4,0.03
		c-0.18,0.01-0.37,0.01-0.55-0.01l-1.03-0.13c-0.29-0.04-0.58-0.12-0.84-0.26l-0.48-0.25c-0.47-0.24-0.89-0.59-1.21-1.01l-0.66-0.86
		L83.45,91.64z"/>
	<path class="st5" d="M74.53,100.83l1.76,0.42l-0.95,6.19l3.02-0.09l0.8-4.69c0.02-0.14,0.32-0.07,0.46-0.06l10.69,0.55
		c-0.18-0.06,0.5-0.15,0.57-0.13l5.41-0.96c0.18-0.02,0.67-0.29,0.31,0.32l-0.54,4.25h1.68l1.87-5.41l4.61-0.48l-5.39,5.29
		c-0.17,0.17-0.06,0.46,0.18,0.47l0,0c0.24,0.01,0.35,0.29,0.19,0.47l-3.28,3.86l-2.69-1.86l-5.14-0.73l-4.89,0.65l-5.7,0.81
		l-3.96,0.77l0.28-3.66l0.64-2.58L74.53,100.83z"/>
	<path class="st2" d="M120.09,128.42c-0.14-0.06,0.37-0.13,0.23-0.2c1.11-0.82,2.12-1.77,3.12-2.72c0.58-0.55,1.17-1.11,1.75-1.66
		c-0.46-0.61-0.76-1.33-0.87-2.08c-0.58,0.42-3.26,2.58-3.87,2.14c0.25-0.09,3.39-1.62,3.1-1.87c-0.87-0.74-1.57-1.69-2.02-2.75
		c-0.57,0.62-0.87,1.46-1,2.31c-0.09,0.64-0.03,1.28-0.07,1.92c-0.05,0.75-0.26,0.73-0.95,1.05c0.1,1,0.39,1.9,0.66,2.86
		c0.26,0.92,0.11,0.29-0.14,1.15c-0.45,1.52,3.97,4.64,4.25,4.09c1.33-2.59,1.67-4.53,3.33-6.98c0.39,0.28,0.87,0.42,1.34,0.39
		c0.09,1.11-0.39,2.16-0.69,3.22c-0.32,1.13-0.25,1.7-0.37,2.87c-1.05,0.2-2.4,0.18-3.43-0.17"/>
	<path class="st2" d="M125.4,123.7l2.45,1.82l2.03,0.7c0.06,0.01,1.11,0.01,1.17,0l1.77-0.63l0,0c0.27,0.39,0.33,0.89,0.15,1.33
		l-0.29,0.71c-0.21,0.52-0.55,0.97-0.99,1.32l-0.2,0.64c-0.34,0.7-1.43,1.27-2.26,1.44l-1.24,0.5l1.04-4.12l0.19-1.53"/>
	<path class="st2" d="M41.75,100.43c-0.14-0.06,0.37-0.14,0.23-0.2c1.11-0.82,2.11-1.77,3.11-2.72c0.58-0.56,1.17-1.11,1.75-1.67
		c-0.45-0.6-0.75-1.32-0.86-2.06c-0.58,0.42-3.26,2.58-3.87,2.15c0.25-0.09,3.39-1.63,3.1-1.87c-0.87-0.73-1.56-1.68-2.01-2.73
		c-0.57,0.62-0.87,1.46-1,2.3c-0.09,0.64-0.03,1.27-0.07,1.91c-0.05,0.75-0.26,0.73-0.95,1.05c0.1,0.99,0.38,1.89,0.65,2.84
		c0.26,0.91,0.11,0.28-0.15,1.15c-0.45,1.51,3.95,4.6,4.23,4.05c1.33-2.58,1.68-4.52,3.33-6.96c0.38,0.28,0.87,0.42,1.33,0.38
		c0.08,1.1-0.39,2.15-0.69,3.2c-0.32,1.12-0.25,1.69-0.37,2.86c-1.05,0.2-2.39,0.19-3.42-0.15"/>
	<path class="st2" d="M46.83,96.29l2.45,1.82l2.03,0.7c0.06,0.01,1.11,0.01,1.17,0l1.77-0.63v0c0.27,0.39,0.33,0.89,0.15,1.33
		l-0.29,0.71c-0.21,0.52-0.55,0.97-0.99,1.32l-0.2,0.64c-0.34,0.7-1.43,1.27-2.26,1.44l-1.24,0.5l1.04-4.12l0.19-1.53"/>
	<path class="st2" d="M115.37,50.82c-0.14-0.06,0.37-0.14,0.23-0.2c1.11-0.82,2.11-1.77,3.11-2.72c0.58-0.56,1.17-1.11,1.75-1.67
		c-0.45-0.6-0.75-1.32-0.86-2.06c-0.58,0.42-3.26,2.58-3.87,2.15c0.25-0.09,3.39-1.63,3.1-1.87c-0.87-0.73-1.56-1.68-2.01-2.73
		c-0.57,0.62-0.87,1.46-1,2.3c-0.09,0.64-0.03,1.27-0.07,1.91c-0.05,0.75-0.26,0.73-0.95,1.05c0.1,0.99,0.38,1.89,0.65,2.84
		c0.26,0.91,0.11,0.28-0.15,1.15c-0.45,1.51,3.95,4.6,4.23,4.05c1.33-2.58,1.68-4.52,3.33-6.96c0.38,0.28,0.87,0.42,1.33,0.38
		c0.08,1.1-0.39,2.15-0.69,3.2c-0.32,1.12-0.25,1.69-0.37,2.86c-1.05,0.2-2.39,0.19-3.42-0.15"/>
	<path class="st2" d="M67.83,146.4c-0.14-0.07,0.38-0.11,0.24-0.19c1.15-0.76,2.2-1.66,3.25-2.55c0.61-0.52,1.23-1.05,1.84-1.57
		c-0.42-0.63-0.69-1.37-0.76-2.12c-0.6,0.39-3.39,2.4-3.98,1.94c0.26-0.07,3.47-1.44,3.2-1.7c-0.83-0.79-1.48-1.77-1.87-2.85
		c-0.6,0.59-0.95,1.41-1.11,2.25c-0.13,0.64-0.09,1.27-0.17,1.91c-0.09,0.75-0.3,0.72-1,1c0.05,1,0.61,2.08,0.83,3.06
		c0.21,0.93-0.23,0.13-0.53,0.98c-0.53,1.49,3.72,4.84,4.03,4.31"/>
	<path class="st2" d="M120.4,46.39l2.45,1.82l2.03,0.7c0.06,0.01,1.11,0.01,1.17,0l1.77-0.63h0c0.27,0.39,0.33,0.89,0.15,1.33
		l-0.29,0.71c-0.21,0.52-0.55,0.97-0.99,1.32l-0.2,0.64c-0.34,0.7-1.43,1.27-2.26,1.44l-1.24,0.5l1.04-4.12l0.19-1.53"/>
	<path class="st2" d="M134.35,94.76c-0.14-0.06,0.37-0.13,0.23-0.2c1.11-0.82,2.12-1.77,3.12-2.72c0.58-0.55,1.17-1.11,1.75-1.66
		c-0.46-0.61-0.76-1.33-0.87-2.08c-0.58,0.42-3.26,2.58-3.87,2.14c0.25-0.09,3.39-1.62,3.1-1.87c-0.87-0.74-1.57-1.69-2.02-2.75
		c-0.57,0.62-0.87,1.46-1,2.31c-0.09,0.64-0.03,1.28-0.07,1.92c-0.05,0.75-0.26,0.73-0.95,1.05c0.1,1,0.39,1.9,0.66,2.86
		c0.26,0.92,0.11,0.29-0.14,1.15c-0.45,1.52,3.97,4.64,4.25,4.09c1.33-2.59,1.67-4.53,3.33-6.98c0.39,0.28,0.87,0.42,1.34,0.39
		c0.09,1.11-0.39,2.16-0.69,3.22c-0.32,1.13-0.25,1.7-0.37,2.87c-1.05,0.2-2.4,0.18-3.43-0.17"/>
	<path class="st2" d="M139.33,90.26l2.55,1.69l2.06,0.59c0.06,0,1.11-0.05,1.17-0.06l1.73-0.72l0,0c0.29,0.38,0.37,0.87,0.22,1.32
		l-0.25,0.73c-0.18,0.53-0.5,1-0.92,1.37l-0.16,0.65c-1.36,1.35-1.36,1.35-2.18,1.56l-1.21,0.57l0.81-4.17l0.11-1.53"/>
	<path class="st2" d="M55.97,57.21c-0.14-0.06,0.4-0.15,0.25-0.21c1.19-0.88,2.28-1.89,3.37-2.9c0.63-0.59,1.27-1.18,1.9-1.77
		c-0.46-0.61-0.75-1.34-0.84-2.1c-0.62,0.45-3.51,2.76-4.14,2.33c0.27-0.1,3.62-1.78,3.32-2.02c-0.89-0.73-1.59-1.68-2.02-2.75
		c-0.62,0.66-0.97,1.53-1.13,2.4c-0.12,0.66-0.07,1.31-0.14,1.97c-0.08,0.77-0.3,0.76-1.03,1.11c0.07,1.02,0.34,1.94,0.59,2.91
		c0.24,0.93,0.11,0.29-0.19,1.19c-0.52,1.57,4,4.62,4.32,4.04c1.49-2.7,1.91-4.7,3.74-7.27c0.4,0.28,0.9,0.4,1.39,0.35
		c0.05,1.14-0.48,2.23-0.84,3.32c-0.37,1.17-0.32,1.75-0.49,2.95c-1.11,0.24-2.52,0.27-3.59-0.05"/>
	<path class="st2" d="M61.46,52.35l2.45,1.82l2.03,0.7c0.06,0.01,1.11,0.01,1.17,0l1.77-0.63h0c0.27,0.39,0.33,0.89,0.15,1.33
		l-0.29,0.71c-0.21,0.52-0.55,0.97-0.99,1.32l-0.2,0.64c-0.34,0.7-1.43,1.27-2.26,1.44l-1.24,0.5l1.04-4.12l0.19-1.53"/>
	<polygon class="st26" points="104.19,118.79 111.59,111.48 111.76,114.29 	"/>
	<path class="st27" d="M116.91,146.66c3.1,2.96,3.33,3.18,6.26,6.31"/>
	<path class="st27" d="M118.66,147.07c0.03-0.44,0.18-0.88,0.48-1.21c0.26,0.26,0.4,0.62,0.5,0.98c0.1,0.34,0.17,0.71,0.09,1.05
		c-0.07,0.27-0.45,0.83-0.79,0.61C118.64,148.3,118.64,147.39,118.66,147.07z"/>
	<path class="st27" d="M119.93,148.09c0.03-0.44,0.18-0.88,0.48-1.21c0.26,0.26,0.4,0.62,0.5,0.98c0.1,0.34,0.17,0.71,0.09,1.05
		c-0.07,0.27-0.45,0.83-0.79,0.61C119.91,149.32,119.91,148.41,119.93,148.09z"/>
	<path class="st27" d="M121.04,149.21c0.03-0.44,0.18-0.88,0.48-1.21c0.26,0.26,0.4,0.62,0.5,0.98c0.1,0.34,0.17,0.71,0.09,1.05
		c-0.07,0.27-0.45,0.83-0.79,0.61C121.02,150.44,121.02,149.52,121.04,149.21z"/>
	<path class="st27" d="M122.15,150.56c0.03-0.44,0.18-0.88,0.48-1.21c0.26,0.26,0.4,0.62,0.5,0.98c0.1,0.34,0.17,0.71,0.09,1.05
		c-0.07,0.27-0.45,0.83-0.79,0.61C122.13,151.78,122.13,150.87,122.15,150.56z"/>
	<path class="st27" d="M117.53,147.96c-0.44-0.04-0.9,0.04-1.27,0.27c0.22,0.3,0.55,0.5,0.88,0.66c0.32,0.15,0.67,0.29,1.02,0.26
		c0.27-0.02,0.89-0.31,0.73-0.67C118.74,148.15,117.84,148,117.53,147.96z"/>
	<path class="st27" d="M118.47,149.16c-0.44-0.01-0.89,0.1-1.25,0.35c0.24,0.27,0.59,0.43,0.93,0.56c0.33,0.12,0.69,0.23,1.04,0.17
		c0.27-0.04,0.87-0.36,0.67-0.69C119.7,149.25,118.79,149.17,118.47,149.16z"/>
	<path class="st27" d="M119.48,150.28c-0.44-0.04-0.9,0.04-1.27,0.27c0.22,0.3,0.55,0.5,0.88,0.66c0.32,0.15,0.67,0.29,1.02,0.26
		c0.27-0.02,0.89-0.31,0.73-0.67C120.69,150.46,119.79,150.31,119.48,150.28z"/>
	<path class="st27" d="M120.81,151.58c-0.44-0.04-0.9,0.04-1.27,0.27c0.22,0.3,0.55,0.5,0.88,0.66c0.32,0.15,0.67,0.29,1.02,0.26
		c0.27-0.02,0.89-0.31,0.73-0.67C122.02,151.76,121.12,151.61,120.81,151.58z"/>
	<path class="st27" d="M102.14,83.53c3.1,2.96,6.13,6,9.06,9.13"/>
	<path class="st27" d="M103.89,83.94c0.03-0.44,0.18-0.88,0.48-1.21c0.26,0.26,0.4,0.62,0.5,0.98c0.1,0.34,0.17,0.71,0.09,1.05
		c-0.07,0.27-0.45,0.83-0.79,0.61C103.87,85.17,103.87,84.25,103.89,83.94z"/>
	<path class="st27" d="M105.16,84.96c0.03-0.44,0.18-0.88,0.48-1.21c0.26,0.26,0.4,0.62,0.5,0.98c0.1,0.34,0.17,0.71,0.09,1.05
		c-0.07,0.27-0.45,0.83-0.79,0.61C105.13,86.19,105.14,85.27,105.16,84.96z"/>
	<path class="st27" d="M106.27,86.08c0.03-0.44,0.18-0.88,0.48-1.21c0.26,0.26,0.4,0.62,0.5,0.98c0.1,0.34,0.17,0.71,0.09,1.05
		c-0.07,0.27-0.45,0.83-0.79,0.61C106.25,87.3,106.25,86.39,106.27,86.08z"/>
	<path class="st27" d="M107.38,87.42c0.03-0.44,0.18-0.88,0.48-1.21c0.26,0.26,0.4,0.62,0.5,0.98c0.1,0.34,0.17,0.71,0.09,1.05
		c-0.07,0.27-0.45,0.83-0.79,0.61C107.36,88.65,107.36,87.74,107.38,87.42z"/>
	<path class="st27" d="M102.76,84.83c-0.44-0.04-0.9,0.04-1.27,0.27c0.22,0.3,0.55,0.5,0.88,0.66c0.32,0.15,0.67,0.29,1.02,0.26
		c0.27-0.02,0.89-0.31,0.73-0.67C103.97,85.01,103.07,84.86,102.76,84.83z"/>
	<path class="st27" d="M103.7,86.03c-0.44-0.01-0.89,0.1-1.25,0.35c0.24,0.27,0.59,0.43,0.93,0.56c0.33,0.12,0.69,0.23,1.04,0.17
		c0.27-0.04,0.87-0.36,0.67-0.69C104.92,86.11,104.02,86.04,103.7,86.03z"/>
	<path class="st27" d="M104.7,87.14c-0.44-0.04-0.9,0.04-1.27,0.27c0.22,0.3,0.55,0.5,0.88,0.66c0.32,0.15,0.67,0.29,1.02,0.26
		c0.27-0.02,0.89-0.31,0.73-0.67C105.92,87.32,105.02,87.17,104.7,87.14z"/>
	<path class="st27" d="M106.04,88.45c-0.44-0.04-0.9,0.04-1.27,0.27c0.22,0.3,0.55,0.5,0.88,0.66c0.32,0.15,0.67,0.29,1.02,0.26
		c0.27-0.02,0.89-0.31,0.73-0.67C107.25,88.63,106.35,88.48,106.04,88.45z"/>
	<path class="st27" d="M48.42,74.36c3.1,2.96,6.13,6,9.06,9.13"/>
	<path class="st27" d="M50.17,74.78c0.03-0.44,0.18-0.88,0.48-1.21c0.26,0.26,0.4,0.62,0.5,0.98c0.1,0.34,0.17,0.71,0.09,1.05
		c-0.07,0.27-0.45,0.83-0.79,0.61C50.14,76.01,50.14,75.09,50.17,74.78z"/>
	<path class="st27" d="M51.43,75.8c0.03-0.44,0.18-0.88,0.48-1.21c0.26,0.26,0.4,0.62,0.5,0.98c0.1,0.34,0.17,0.71,0.09,1.05
		c-0.07,0.27-0.45,0.83-0.79,0.61C51.41,77.03,51.41,76.11,51.43,75.8z"/>
	<path class="st27" d="M52.54,76.92c0.03-0.44,0.18-0.88,0.48-1.21c0.26,0.26,0.4,0.62,0.5,0.98c0.1,0.34,0.17,0.71,0.09,1.05
		c-0.07,0.27-0.45,0.83-0.79,0.61C52.52,78.14,52.52,77.23,52.54,76.92z"/>
	<path class="st27" d="M53.66,78.26c0.03-0.44,0.18-0.88,0.48-1.21c0.26,0.26,0.4,0.62,0.5,0.98c0.1,0.34,0.17,0.71,0.09,1.05
		c-0.07,0.27-0.45,0.83-0.79,0.61C53.63,79.49,53.63,78.58,53.66,78.26z"/>
	<path class="st27" d="M49.03,75.67c-0.44-0.04-0.9,0.04-1.27,0.27c0.22,0.3,0.55,0.5,0.88,0.66c0.32,0.15,0.67,0.29,1.02,0.26
		c0.27-0.02,0.89-0.31,0.73-0.67C50.25,75.85,49.35,75.7,49.03,75.67z"/>
	<path class="st27" d="M49.98,76.87c-0.44-0.01-0.89,0.1-1.25,0.35c0.24,0.27,0.59,0.43,0.93,0.56C50,77.9,50.35,78,50.7,77.95
		c0.27-0.04,0.87-0.36,0.67-0.69C51.2,76.95,50.29,76.88,49.98,76.87z"/>
	<path class="st27" d="M50.98,77.98c-0.44-0.04-0.9,0.04-1.27,0.27c0.22,0.3,0.55,0.5,0.88,0.66c0.32,0.15,0.67,0.29,1.02,0.26
		c0.27-0.02,0.89-0.31,0.73-0.67C52.19,78.16,51.29,78.01,50.98,77.98z"/>
	<path class="st27" d="M52.31,79.29c-0.44-0.04-0.9,0.04-1.27,0.27c0.22,0.3,0.55,0.5,0.88,0.66c0.32,0.15,0.67,0.29,1.02,0.26
		c0.27-0.02,0.89-0.31,0.73-0.67C53.52,79.47,52.62,79.32,52.31,79.29z"/>
	<path class="st27" d="M139.03,60.24c3.1,2.96,6.13,6,9.06,9.13"/>
	<path class="st27" d="M140.78,60.66c0.03-0.44,0.18-0.88,0.48-1.21c0.26,0.26,0.4,0.62,0.5,0.98c0.1,0.34,0.17,0.71,0.09,1.05
		c-0.07,0.27-0.45,0.83-0.79,0.61C140.75,61.88,140.75,60.97,140.78,60.66z"/>
	<path class="st27" d="M142.04,61.68c0.03-0.44,0.18-0.88,0.48-1.21c0.26,0.26,0.4,0.62,0.5,0.98c0.1,0.34,0.17,0.71,0.09,1.05
		c-0.07,0.27-0.45,0.83-0.79,0.61C142.02,62.9,142.02,61.99,142.04,61.68z"/>
	<path class="st27" d="M143.15,62.79c0.03-0.44,0.18-0.88,0.48-1.21c0.26,0.26,0.4,0.62,0.5,0.98c0.1,0.34,0.17,0.71,0.09,1.05
		c-0.07,0.27-0.45,0.83-0.79,0.61C143.13,64.02,143.13,63.11,143.15,62.79z"/>
	<path class="st27" d="M144.27,64.14c0.03-0.44,0.18-0.88,0.48-1.21c0.26,0.26,0.4,0.62,0.5,0.98c0.1,0.34,0.17,0.71,0.09,1.05
		c-0.07,0.27-0.45,0.83-0.79,0.61C144.24,65.36,144.24,64.45,144.27,64.14z"/>
	<path class="st27" d="M139.64,61.55c-0.44-0.04-0.9,0.04-1.27,0.27c0.22,0.3,0.55,0.5,0.88,0.66c0.32,0.15,0.67,0.29,1.02,0.26
		c0.27-0.02,0.89-0.31,0.73-0.67C140.86,61.73,139.96,61.58,139.64,61.55z"/>
	<path class="st27" d="M140.59,62.74c-0.44-0.01-0.89,0.1-1.25,0.35c0.24,0.27,0.59,0.43,0.93,0.56c0.33,0.12,0.69,0.23,1.04,0.17
		c0.27-0.04,0.87-0.36,0.67-0.69C141.81,62.83,140.9,62.75,140.59,62.74z"/>
	<path class="st27" d="M141.59,63.86c-0.44-0.04-0.9,0.04-1.27,0.27c0.22,0.3,0.55,0.5,0.88,0.66c0.32,0.15,0.67,0.29,1.02,0.26
		c0.27-0.02,0.89-0.31,0.73-0.67C142.8,64.04,141.9,63.89,141.59,63.86z"/>
	<path class="st27" d="M142.92,65.16c-0.44-0.04-0.9,0.04-1.27,0.27c0.22,0.3,0.55,0.5,0.88,0.66c0.32,0.15,0.67,0.29,1.02,0.26
		c0.27-0.02,0.89-0.31,0.73-0.67C144.14,65.34,143.24,65.19,142.92,65.16z"/>
	<path class="st27" d="M139.5,116.12c3.1,2.96,6.13,6,9.06,9.13"/>
	<path class="st27" d="M141.25,116.53c0.03-0.44,0.18-0.88,0.48-1.21c0.26,0.26,0.4,0.62,0.5,0.98c0.1,0.34,0.17,0.71,0.09,1.05
		c-0.07,0.27-0.45,0.83-0.79,0.61C141.23,117.76,141.23,116.84,141.25,116.53z"/>
	<path class="st27" d="M142.52,117.55c0.03-0.44,0.18-0.88,0.48-1.21c0.26,0.26,0.4,0.62,0.5,0.98c0.1,0.34,0.17,0.71,0.09,1.05
		c-0.07,0.27-0.45,0.83-0.79,0.61C142.49,118.78,142.49,117.86,142.52,117.55z"/>
	<path class="st27" d="M143.63,118.67c0.03-0.44,0.18-0.88,0.48-1.21c0.26,0.26,0.4,0.62,0.5,0.98c0.1,0.34,0.17,0.71,0.09,1.05
		c-0.07,0.27-0.45,0.83-0.79,0.61C143.61,119.89,143.61,118.98,143.63,118.67z"/>
	<path class="st27" d="M144.74,120.01c0.03-0.44,0.18-0.88,0.48-1.21c0.26,0.26,0.4,0.62,0.5,0.98c0.1,0.34,0.17,0.71,0.09,1.05
		c-0.07,0.27-0.45,0.83-0.79,0.61C144.72,121.24,144.72,120.33,144.74,120.01z"/>
	<path class="st27" d="M140.12,117.42c-0.44-0.04-0.9,0.04-1.27,0.27c0.22,0.3,0.55,0.5,0.88,0.66c0.32,0.15,0.67,0.29,1.02,0.26
		c0.27-0.02,0.89-0.31,0.73-0.67C141.33,117.6,140.43,117.45,140.12,117.42z"/>
	<path class="st27" d="M141.06,118.62c-0.44-0.01-0.89,0.1-1.25,0.35c0.24,0.27,0.59,0.43,0.93,0.56c0.33,0.12,0.69,0.23,1.04,0.17
		c0.27-0.04,0.87-0.36,0.67-0.69C142.28,118.7,141.37,118.63,141.06,118.62z"/>
	<path class="st27" d="M142.06,119.73c-0.44-0.04-0.9,0.04-1.27,0.27c0.22,0.3,0.55,0.5,0.88,0.66c0.32,0.15,0.67,0.29,1.02,0.26
		c0.27-0.02,0.89-0.31,0.73-0.67C143.28,119.91,142.38,119.76,142.06,119.73z"/>
	<path class="st27" d="M143.4,121.04c-0.44-0.04-0.9,0.04-1.27,0.27c0.22,0.3,0.55,0.5,0.88,0.66c0.32,0.15,0.67,0.29,1.02,0.26
		c0.27-0.02,0.89-0.31,0.73-0.67C144.61,121.22,143.71,121.07,143.4,121.04z"/>
	<path class="st27" d="M46.51,127.37c3.1,2.96,6.13,6,9.06,9.13"/>
	<path class="st27" d="M48.26,127.79c0.03-0.44,0.18-0.88,0.48-1.21c0.26,0.26,0.4,0.62,0.5,0.98c0.1,0.34,0.17,0.71,0.09,1.05
		c-0.07,0.27-0.45,0.83-0.79,0.61C48.24,129.01,48.24,128.1,48.26,127.79z"/>
	<path class="st27" d="M49.53,128.81c0.03-0.44,0.18-0.88,0.48-1.21c0.26,0.26,0.4,0.62,0.5,0.98c0.1,0.34,0.17,0.71,0.09,1.05
		c-0.07,0.27-0.45,0.83-0.79,0.61C49.5,130.03,49.51,129.12,49.53,128.81z"/>
	<path class="st27" d="M50.64,129.92c0.03-0.44,0.18-0.88,0.48-1.21c0.26,0.26,0.4,0.62,0.5,0.98c0.1,0.34,0.17,0.71,0.09,1.05
		c-0.07,0.27-0.45,0.83-0.79,0.61C50.62,131.15,50.62,130.24,50.64,129.92z"/>
	<path class="st27" d="M51.75,131.27c0.03-0.44,0.18-0.88,0.48-1.21c0.26,0.26,0.4,0.62,0.5,0.98c0.1,0.34,0.17,0.71,0.09,1.05
		c-0.07,0.27-0.45,0.83-0.79,0.61C51.73,132.5,51.73,131.58,51.75,131.27z"/>
	<path class="st27" d="M47.13,128.68c-0.44-0.04-0.9,0.04-1.27,0.27c0.22,0.3,0.55,0.5,0.88,0.66c0.32,0.15,0.67,0.29,1.02,0.26
		c0.27-0.02,0.89-0.31,0.73-0.67C48.34,128.86,47.44,128.71,47.13,128.68z"/>
	<path class="st27" d="M48.07,129.87c-0.44-0.01-0.89,0.1-1.25,0.35c0.24,0.27,0.59,0.43,0.93,0.56c0.33,0.12,0.69,0.23,1.04,0.17
		c0.27-0.04,0.87-0.36,0.67-0.69C49.29,129.96,48.38,129.88,48.07,129.87z"/>
	<path class="st27" d="M49.07,130.99c-0.44-0.04-0.9,0.04-1.27,0.27c0.22,0.3,0.55,0.5,0.88,0.66c0.32,0.15,0.67,0.29,1.02,0.26
		c0.27-0.02,0.89-0.31,0.73-0.67C50.29,131.17,49.39,131.02,49.07,130.99z"/>
	<path class="st27" d="M50.41,132.29c-0.44-0.04-0.9,0.04-1.27,0.27c0.22,0.3,0.55,0.5,0.88,0.66c0.32,0.15,0.67,0.29,1.02,0.26
		c0.27-0.02,0.89-0.31,0.73-0.67C51.62,132.47,50.72,132.32,50.41,132.29z"/>
	<g>
		<g>
		</g>
	</g>
	<g>
		<g>
			<path class="st28" d="M48.73,46.6l-6.56-8.33l2.91-2.29c0.74-0.58,1.52-0.92,2.36-1.01s1.66,0.05,2.47,0.43s1.53,0.98,2.18,1.81
				c0.65,0.82,1.07,1.67,1.25,2.55c0.18,0.87,0.13,1.71-0.16,2.5c-0.29,0.79-0.8,1.48-1.54,2.06L48.73,46.6z M48.9,44.79l1.87-1.47
				c0.57-0.45,0.96-0.97,1.18-1.56c0.21-0.59,0.25-1.21,0.1-1.87c-0.14-0.65-0.46-1.29-0.94-1.91c-0.49-0.63-1.04-1.08-1.64-1.37
				c-0.6-0.29-1.21-0.4-1.83-0.33c-0.62,0.07-1.22,0.33-1.79,0.78l-1.87,1.47L48.9,44.79z"/>
			<path class="st28" d="M60.14,38.46l-0.89-1.44l-0.22-0.24l-1.52-2.46c-0.32-0.52-0.7-0.85-1.13-0.98
				c-0.43-0.13-0.9-0.04-1.41,0.27c-0.34,0.21-0.62,0.48-0.86,0.81c-0.24,0.33-0.4,0.68-0.48,1.04l-1-0.66
				c0.12-0.46,0.33-0.9,0.65-1.3c0.32-0.4,0.7-0.74,1.15-1.02c0.78-0.48,1.52-0.62,2.22-0.43c0.7,0.2,1.34,0.76,1.92,1.7l2.55,4.12
				L60.14,38.46z M58.32,39.69c-0.42,0.26-0.84,0.4-1.27,0.43c-0.42,0.02-0.81-0.06-1.17-0.26c-0.36-0.2-0.66-0.49-0.9-0.88
				c-0.23-0.37-0.36-0.75-0.4-1.14c-0.04-0.39,0.05-0.78,0.27-1.16s0.61-0.75,1.18-1.1l1.8-1.11l0.55,0.89l-1.75,1.08
				c-0.51,0.32-0.8,0.63-0.85,0.95c-0.05,0.32,0.01,0.62,0.19,0.91c0.21,0.33,0.48,0.54,0.83,0.6c0.35,0.07,0.71-0.02,1.11-0.26
				c0.39-0.24,0.66-0.55,0.82-0.93c0.16-0.38,0.18-0.81,0.07-1.29l0.73,0.72c0.11,0.49,0.07,0.96-0.12,1.4
				C59.2,38.98,58.84,39.37,58.32,39.69z"/>
			<path class="st28" d="M64.43,36.14l-6.14-5.93l1.13-0.55l5.52,5.39l-0.54,0.26l-0.82-7.69l1.06-0.52l0.9,8.49L64.43,36.14z"/>
			<path class="st28" d="M66.05,24.93c-0.22,0.09-0.43,0.08-0.64-0.04c-0.21-0.11-0.37-0.29-0.46-0.53
				c-0.1-0.25-0.11-0.49-0.04-0.72c0.08-0.23,0.22-0.38,0.44-0.47c0.22-0.09,0.43-0.08,0.64,0.03s0.36,0.28,0.46,0.53
				c0.1,0.25,0.12,0.49,0.05,0.72S66.28,24.84,66.05,24.93z M69.04,34.05l-2.98-7.46l1.12-0.45l2.98,7.46L69.04,34.05z"/>
			<path class="st28" d="M74.76,32.1c-0.62,0.18-1.22,0.18-1.8,0c-0.58-0.18-1.1-0.53-1.56-1.04c-0.46-0.51-0.8-1.15-1.04-1.94
				c-0.23-0.78-0.3-1.51-0.19-2.18c0.11-0.67,0.35-1.24,0.74-1.71c0.39-0.47,0.89-0.8,1.51-0.99c0.54-0.16,1.07-0.16,1.59,0
				s1,0.49,1.43,1c0.43,0.5,0.78,1.19,1.04,2.06s0.35,1.63,0.27,2.29c-0.08,0.66-0.29,1.2-0.64,1.62
				C75.77,31.64,75.31,31.94,74.76,32.1z M74.49,30.86c0.4-0.12,0.73-0.34,0.99-0.66c0.26-0.32,0.42-0.71,0.49-1.18
				c0.07-0.47,0.02-0.97-0.14-1.51c-0.16-0.55-0.4-1-0.71-1.34c-0.31-0.35-0.66-0.58-1.05-0.71s-0.79-0.13-1.19-0.01
				c-0.41,0.12-0.74,0.34-1,0.66s-0.42,0.71-0.49,1.17c-0.07,0.46-0.03,0.96,0.14,1.52c0.16,0.54,0.4,0.99,0.71,1.34
				c0.32,0.35,0.67,0.59,1.05,0.72C73.69,30.97,74.08,30.98,74.49,30.86z M77.01,31.34l-0.62-2.08l-0.46-1.81l-0.65-1.75l-1.53-5.12
				l1.16-0.34l3.21,10.77L77.01,31.34z"/>
			<path class="st28" d="M80.17,30.52L78.6,20.04l3.9-0.58c1-0.15,1.81-0.02,2.42,0.38c0.61,0.4,0.98,1.02,1.11,1.86
				c0.09,0.57,0.05,1.06-0.1,1.49c-0.15,0.42-0.39,0.76-0.72,1.03c-0.32,0.26-0.69,0.43-1.11,0.49l0.16-0.48
				c0.5-0.07,0.95-0.04,1.36,0.12c0.41,0.15,0.76,0.42,1.05,0.79c0.28,0.37,0.47,0.86,0.56,1.46c0.13,0.9-0.04,1.64-0.53,2.22
				s-1.28,0.95-2.38,1.11L80.17,30.52z M81.24,29.12l2.86-0.43c0.69-0.1,1.19-0.32,1.52-0.66s0.44-0.8,0.35-1.4
				c-0.09-0.61-0.34-1.03-0.75-1.25c-0.41-0.22-0.95-0.29-1.64-0.18l-2.97,0.45l-0.18-1.21l2.66-0.4c0.63-0.09,1.1-0.31,1.4-0.64
				c0.31-0.33,0.42-0.78,0.33-1.34c-0.08-0.56-0.32-0.95-0.71-1.18s-0.9-0.29-1.53-0.2l-2.55,0.38L81.24,29.12z"/>
			<path class="st28" d="M89.14,29.43l-0.26-8.02l1.16-0.04l0.07,2.18L89.97,23c0.17-0.56,0.46-1,0.89-1.3
				c0.43-0.31,0.96-0.47,1.59-0.49l0.05,1.41c-0.05-0.01-0.1-0.01-0.15-0.01c-0.05,0-0.09,0-0.13,0c-0.65,0.02-1.15,0.27-1.51,0.75
				c-0.36,0.48-0.53,1.15-0.5,2.03l0.13,4L89.14,29.43z"/>
			<path class="st28" d="M96.97,29.6c-0.71-0.05-1.32-0.27-1.84-0.66c-0.52-0.39-0.9-0.9-1.15-1.54c-0.26-0.63-0.36-1.35-0.3-2.15
				c0.05-0.8,0.25-1.49,0.58-2.09c0.33-0.59,0.76-1.05,1.29-1.36c0.53-0.31,1.11-0.45,1.75-0.4c0.64,0.04,1.2,0.25,1.67,0.63
				c0.47,0.38,0.82,0.88,1.06,1.52c0.24,0.64,0.33,1.37,0.27,2.2c0,0.06-0.01,0.13-0.02,0.21s-0.02,0.16-0.03,0.23l-5.65-0.39
				l0.07-1.04l5.03,0.34l-0.51,0.33c0.04-0.51-0.01-0.98-0.17-1.39s-0.39-0.75-0.69-1c-0.31-0.25-0.67-0.39-1.1-0.42
				c-0.42-0.03-0.8,0.06-1.14,0.26c-0.34,0.2-0.62,0.5-0.83,0.9c-0.21,0.4-0.34,0.86-0.37,1.38l-0.02,0.24
				c-0.04,0.53,0.03,1.02,0.21,1.45c0.18,0.43,0.44,0.78,0.79,1.03c0.35,0.26,0.77,0.4,1.24,0.43c0.39,0.03,0.76-0.03,1.09-0.17
				c0.33-0.14,0.63-0.36,0.9-0.67l0.6,0.98c-0.33,0.4-0.73,0.7-1.19,0.89C98.03,29.56,97.52,29.64,96.97,29.6z"/>
			<path class="st28" d="M103.29,30.38c-0.49-0.09-0.89-0.27-1.22-0.53s-0.56-0.59-0.69-0.98c-0.13-0.39-0.16-0.81-0.08-1.25
				c0.08-0.43,0.24-0.8,0.47-1.11c0.23-0.32,0.56-0.54,0.98-0.68c0.42-0.14,0.96-0.15,1.61-0.03l2.08,0.38l-0.19,1.03l-2.03-0.38
				c-0.59-0.11-1.01-0.06-1.26,0.14s-0.41,0.47-0.47,0.81c-0.07,0.39,0,0.72,0.21,1c0.21,0.28,0.54,0.46,1,0.55
				c0.44,0.08,0.86,0.04,1.23-0.14c0.38-0.18,0.68-0.48,0.92-0.91l0.05,1.03c-0.24,0.44-0.59,0.76-1.03,0.96
				C104.41,30.45,103.89,30.49,103.29,30.38z M105.45,30.69l0.31-1.67l0-0.32l0.53-2.84c0.11-0.61,0.05-1.1-0.18-1.49
				c-0.23-0.39-0.64-0.63-1.22-0.74c-0.39-0.07-0.78-0.06-1.18,0.02c-0.4,0.08-0.75,0.23-1.05,0.44l-0.3-1.16
				c0.4-0.26,0.85-0.44,1.36-0.53c0.51-0.09,1.02-0.08,1.54,0.01c0.9,0.17,1.54,0.56,1.93,1.17c0.39,0.62,0.48,1.47,0.28,2.55
				l-0.88,4.77L105.45,30.69z"/>
			<path class="st28" d="M111.08,32.23c-0.62-0.19-1.12-0.52-1.5-1c-0.38-0.48-0.63-1.05-0.73-1.73c-0.1-0.67-0.03-1.4,0.21-2.19
				s0.59-1.42,1.04-1.92c0.46-0.5,0.98-0.84,1.57-1.02s1.19-0.18,1.8,0.01c0.54,0.16,0.98,0.46,1.32,0.88
				c0.34,0.42,0.56,0.96,0.64,1.62s-0.01,1.42-0.27,2.29s-0.61,1.56-1.04,2.06c-0.43,0.5-0.9,0.84-1.43,1
				C112.17,32.4,111.63,32.39,111.08,32.23z M111.55,31.04c0.4,0.12,0.8,0.12,1.19,0c0.39-0.12,0.75-0.36,1.06-0.71
				s0.55-0.8,0.72-1.34c0.17-0.55,0.22-1.06,0.15-1.51s-0.23-0.85-0.48-1.17c-0.26-0.32-0.59-0.54-0.99-0.66
				c-0.41-0.12-0.81-0.12-1.2,0c-0.39,0.12-0.74,0.36-1.05,0.7c-0.31,0.34-0.56,0.79-0.72,1.34c-0.17,0.54-0.21,1.05-0.15,1.51
				s0.23,0.86,0.48,1.18C110.81,30.69,111.14,30.91,111.55,31.04z M113.38,32.83l0.63-2.07l0.62-1.76l0.42-1.82l1.56-5.11l1.15,0.35
				l-3.28,10.75L113.38,32.83z"/>
			<path class="st28" d="M117.67,34.4l-1.15-0.5l4.26-9.71l1.15,0.51L117.67,34.4z M124.3,32.15l-4.85-2.13l0.53-1.21l4.84,2.13
				L124.3,32.15z M126.56,26.72l1.15,0.51l-4.26,9.71l-1.15-0.5L126.56,26.72z"/>
			<path class="st28" d="M127.95,39.51c-0.62-0.35-1.08-0.81-1.38-1.38c-0.3-0.57-0.43-1.2-0.38-1.88s0.26-1.37,0.65-2.07
				c0.39-0.7,0.86-1.24,1.42-1.64c0.55-0.4,1.14-0.62,1.75-0.68c0.61-0.06,1.2,0.07,1.75,0.38c0.56,0.32,0.98,0.74,1.24,1.29
				c0.26,0.54,0.37,1.15,0.31,1.83c-0.06,0.68-0.29,1.38-0.7,2.1c-0.03,0.05-0.07,0.11-0.11,0.18s-0.09,0.13-0.13,0.19l-4.94-2.77
				l0.51-0.91l4.4,2.47l-0.61,0.08c0.26-0.44,0.41-0.89,0.44-1.33c0.04-0.44-0.03-0.84-0.2-1.2c-0.17-0.36-0.44-0.64-0.81-0.85
				c-0.37-0.21-0.75-0.29-1.14-0.25s-0.77,0.19-1.14,0.46c-0.36,0.27-0.67,0.63-0.93,1.09l-0.12,0.21c-0.26,0.47-0.41,0.93-0.43,1.4
				c-0.03,0.47,0.07,0.89,0.27,1.27c0.21,0.38,0.52,0.69,0.94,0.92c0.34,0.19,0.7,0.3,1.06,0.31c0.36,0.02,0.73-0.06,1.1-0.22
				l0.12,1.14c-0.47,0.22-0.96,0.32-1.46,0.3C128.92,39.93,128.43,39.78,127.95,39.51z"/>
			<path class="st28" d="M133.48,42.87c-0.41-0.27-0.72-0.6-0.92-0.97s-0.29-0.77-0.25-1.18c0.03-0.41,0.17-0.8,0.42-1.18
				c0.24-0.36,0.53-0.64,0.87-0.84c0.34-0.2,0.73-0.28,1.17-0.24c0.44,0.04,0.94,0.24,1.49,0.6l1.76,1.16l-0.58,0.87l-1.72-1.14
				c-0.5-0.33-0.91-0.46-1.22-0.37c-0.31,0.09-0.56,0.27-0.75,0.56c-0.22,0.33-0.28,0.66-0.2,1c0.09,0.34,0.32,0.64,0.71,0.89
				c0.38,0.25,0.77,0.37,1.19,0.35c0.42-0.01,0.82-0.17,1.2-0.48l-0.35,0.97c-0.39,0.31-0.84,0.47-1.32,0.48
				C134.49,43.37,133.99,43.21,133.48,42.87z M135.36,44l0.93-1.42l0.12-0.3l1.59-2.41c0.34-0.51,0.48-0.99,0.42-1.44
				c-0.06-0.45-0.34-0.83-0.84-1.16c-0.33-0.22-0.69-0.36-1.09-0.44s-0.78-0.08-1.14,0l0.18-1.19c0.47-0.09,0.96-0.07,1.45,0.04
				c0.5,0.12,0.97,0.32,1.41,0.61c0.76,0.5,1.2,1.11,1.32,1.83c0.12,0.72-0.13,1.54-0.73,2.46l-2.67,4.04L135.36,44z"/>
			<path class="st28" d="M140.14,47.56c-0.51-0.39-0.87-0.88-1.06-1.46c-0.2-0.58-0.22-1.2-0.08-1.87c0.14-0.67,0.46-1.33,0.95-1.98
				c0.5-0.65,1.04-1.13,1.65-1.44s1.21-0.45,1.82-0.41c0.61,0.03,1.17,0.25,1.69,0.64c0.45,0.34,0.76,0.77,0.93,1.28
				c0.18,0.51,0.19,1.1,0.04,1.74c-0.15,0.65-0.5,1.33-1.05,2.06c-0.55,0.72-1.11,1.25-1.69,1.57s-1.14,0.47-1.69,0.44
				C141.1,48.1,140.6,47.91,140.14,47.56z M140.99,46.61c0.33,0.25,0.71,0.39,1.12,0.41c0.41,0.02,0.82-0.08,1.24-0.3
				c0.42-0.22,0.8-0.56,1.14-1.01c0.35-0.46,0.57-0.91,0.67-1.37c0.1-0.45,0.08-0.87-0.05-1.26c-0.13-0.39-0.36-0.71-0.69-0.97
				c-0.34-0.26-0.71-0.4-1.12-0.42c-0.41-0.02-0.82,0.08-1.23,0.29c-0.41,0.21-0.79,0.55-1.14,1c-0.34,0.45-0.56,0.91-0.66,1.37
				c-0.1,0.46-0.09,0.89,0.04,1.28S140.65,46.35,140.99,46.61z M142.09,48.93l1.31-1.72l1.19-1.44l1.03-1.56l3.24-4.25l0.96,0.73
				l-6.81,8.94L142.09,48.93z"/>
		</g>
	</g>
</g>
</svg>
